<?xml version="1.0" standalone="no"?><!DOCTYPE svg PUBLIC "-//W3C//DTD SVG 1.1//EN" "http://www.w3.org/Graphics/SVG/1.1/DTD/svg11.dtd"><svg class="icon" width="200px" height="200.00px" viewBox="0 0 1024 1024" version="1.1" xmlns="http://www.w3.org/2000/svg"><path d="M863.744 5.12C949.248 5.12 1018.88 74.752 1018.88 160.256v703.488c0 85.504-69.632 155.136-155.136 155.136H160.256C74.752 1018.88 5.12 949.248 5.12 863.744V160.256C5.12 74.752 74.752 5.12 160.256 5.12h703.488m0-5.12H160.256C71.68 0 0 71.68 0 160.256v703.488C0 952.32 71.68 1024 160.256 1024h703.488c88.576 0 160.256-71.68 160.256-160.256V160.256C1024 71.68 952.32 0 863.744 0z" fill="#333333" /><path d="M272.896 153.6c66.048 0 119.296 53.248 119.296 119.296S338.944 392.704 272.896 392.704C207.36 392.704 153.6 338.944 153.6 272.896 153.6 207.36 207.36 153.6 272.896 153.6zM512 392.704c66.048 0 119.296 53.248 119.296 119.296s-53.248 119.296-119.296 119.296-119.296-53.248-119.296-119.296S445.952 392.704 512 392.704z m239.104 238.592c66.048 0 119.296 53.248 119.296 119.296s-53.248 119.296-119.296 119.296-119.296-53.248-119.296-119.296c-0.512-65.536 53.248-119.296 119.296-119.296z" fill="#333333" /></svg>